<svg width="194" height="40" viewBox="0 0 194 40" fill="none" xmlns="http://www.w3.org/2000/svg">
<path d="M17.6679 5.8541C18.2667 4.01148 20.8735 4.01148 21.4722 5.8541L23.5148 12.1406C23.7825 12.9647 24.5504 13.5226 25.4169 13.5226H32.0269C33.9644 13.5226 34.7699 16.0018 33.2025 17.1406L27.8549 21.0259C27.1539 21.5352 26.8606 22.4379 27.1283 23.262L29.1709 29.5485C29.7696 31.3911 27.6607 32.9233 26.0933 31.7845L20.7456 27.8993C20.0447 27.39 19.0955 27.39 18.3945 27.8993L13.0469 31.7845C11.4794 32.9233 9.37048 31.3911 9.96918 29.5485L12.0118 23.262C12.2795 22.4379 11.9862 21.5352 11.2852 21.0259L5.93762 17.1406C4.3702 16.0018 5.17575 13.5226 7.11319 13.5226H13.7232C14.5897 13.5226 15.3576 12.9647 15.6253 12.1406L17.6679 5.8541Z" fill="#4051A7"/>
<path d="M56.8076 5.8541C57.4063 4.01148 60.0131 4.01148 60.6118 5.8541L62.6544 12.1406C62.9222 12.9647 63.6901 13.5226 64.5565 13.5226H71.1666C73.104 13.5226 73.9096 16.0018 72.3421 17.1406L66.9945 21.0259C66.2935 21.5352 66.0002 22.4379 66.268 23.262L68.3106 29.5485C68.9093 31.3911 66.8003 32.9233 65.2329 31.7845L59.8853 27.8993C59.1843 27.39 58.2351 27.39 57.5341 27.8993L52.1865 31.7845C50.6191 32.9233 48.5101 31.3911 49.1088 29.5485L51.1514 23.262C51.4192 22.4379 51.1259 21.5352 50.4249 21.0259L45.0773 17.1406C43.5098 16.0018 44.3154 13.5226 46.2528 13.5226H52.8629C53.7293 13.5226 54.4972 12.9647 54.765 12.1406L56.8076 5.8541Z" fill="#4051A7"/>
<path d="M95.0967 5.8541C95.6954 4.01148 98.3022 4.01148 98.9009 5.8541L100.943 12.1406C101.211 12.9647 101.979 13.5226 102.846 13.5226H109.456C111.393 13.5226 112.199 16.0018 110.631 17.1406L105.284 21.0259C104.583 21.5352 104.289 22.4379 104.557 23.262L106.6 29.5485C107.198 31.3911 105.089 32.9233 103.522 31.7845L98.1743 27.8993C97.4734 27.39 96.5242 27.39 95.8232 27.8993L90.4756 31.7845C88.9082 32.9233 86.7992 31.3911 87.3979 29.5485L89.4405 23.262C89.7083 22.4379 89.4149 21.5352 88.714 21.0259L83.3663 17.1406C81.7989 16.0018 82.6045 13.5226 84.5419 13.5226H91.1519C92.0184 13.5226 92.7863 12.9647 93.054 12.1406L95.0967 5.8541Z" fill="#4051A7"/>
<path d="M134.237 5.8541C134.836 4.01148 137.443 4.01148 138.042 5.8541L140.084 12.1406C140.352 12.9647 141.12 13.5226 141.986 13.5226H148.596C150.534 13.5226 151.339 16.0018 149.772 17.1406L144.424 21.0259C143.723 21.5352 143.43 22.4379 143.698 23.262L145.74 29.5485C146.339 31.3911 144.23 32.9233 142.663 31.7845L137.315 27.8993C136.614 27.39 135.665 27.39 134.964 27.8993L129.616 31.7845C128.049 32.9233 125.94 31.3911 126.539 29.5485L128.581 23.262C128.849 22.4379 128.556 21.5352 127.855 21.0259L122.507 17.1406C120.94 16.0018 121.745 13.5226 123.683 13.5226H130.293C131.159 13.5226 131.927 12.9647 132.195 12.1406L134.237 5.8541Z" fill="#4051A7"/>
<path d="M172.527 5.8541C173.126 4.01148 175.733 4.01148 176.332 5.8541L178.374 12.1406C178.642 12.9647 179.41 13.5226 180.276 13.5226H186.886C188.824 13.5226 189.629 16.0018 188.062 17.1406L182.714 21.0259C182.013 21.5352 181.72 22.4379 181.988 23.262L184.03 29.5485C184.629 31.3911 182.52 32.9233 180.953 31.7845L175.605 27.8993C174.904 27.39 173.955 27.39 173.254 27.8993L167.906 31.7845C166.339 32.9233 164.23 31.3911 164.829 29.5485L166.871 23.262C167.139 22.4379 166.846 21.5352 166.145 21.0259L160.797 17.1406C159.23 16.0018 160.035 13.5226 161.973 13.5226H168.583C169.449 13.5226 170.217 12.9647 170.485 12.1406L172.527 5.8541Z" fill="#4051A7"/>
</svg>
