<svg width="409" height="533" viewBox="0 0 409 533" fill="none" xmlns="http://www.w3.org/2000/svg">
<path d="M526 266.5C526 402.187 413.185 513 273 513C132.815 513 20 402.187 20 266.5C20 130.813 132.815 20 273 20C413.185 20 526 130.813 526 266.5Z" stroke="#C2E5E8" stroke-opacity="0.5" stroke-width="40"/>
<path d="M233.619 179.636L269.397 201.853C251.893 227.436 242.852 254.077 242.275 281.776V325.632H180.818V285.815C181.011 267.349 186.012 248.114 195.822 228.109C205.824 207.912 218.423 191.754 233.619 179.636ZM330.565 179.636L366.343 201.853C348.839 227.436 339.798 254.077 339.221 281.776V325.632H277.764V285.815C277.957 267.349 282.958 248.114 292.768 228.109C302.77 207.912 315.369 191.754 330.565 179.636Z" fill="#ADFCF7"/>
</svg>
