<svg width="121" height="121" viewBox="0 0 121 121" fill="none" xmlns="http://www.w3.org/2000/svg">
<path d="M73.2988 11.8799L71.3881 10L60.7973 20.4144L60.7973 22.2943L70.4875 31.8222L72.3992 29.9434L65.1484 22.8134C85.3415 24.3538 101.297 40.9933 101.297 61.238L104 61.2369C104 39.444 86.7089 21.561 64.9105 20.1272L73.2988 11.8799Z" fill="#3550AB" stroke="#3550AB" stroke-width="0.5"/>
<path d="M46.7012 111.067L48.6119 112.947L59.2027 102.533L59.2027 100.653L49.5125 91.1247L47.6007 93.0035L54.8516 100.133C34.6585 98.5931 18.7028 81.9536 18.7028 61.7089L16 61.71C16 83.5029 33.2911 101.386 55.0895 102.82L46.7012 111.067Z" fill="#3550AB" stroke="#3550AB" stroke-width="0.5"/>
<path d="M60.6577 48.3957C63.3732 48.3957 65.5824 50.3612 65.5824 52.7773C65.5824 54.0479 66.5847 55.0783 67.8208 55.0783C69.0569 55.0783 70.0593 54.0479 70.0593 52.7773C70.0593 48.5607 67.0029 45.0153 62.8962 44.053V42.8562C62.8962 41.5856 61.8938 40.5552 60.6577 40.5552C59.4216 40.5552 58.4192 41.5856 58.4192 42.8562V44.053C54.3125 45.0153 51.2561 48.5607 51.2561 52.7773C51.2561 57.7307 55.4736 61.7607 60.6577 61.7607C63.3732 61.7607 65.5824 63.7262 65.5824 66.1423C65.5824 68.5584 63.3732 70.5239 60.6577 70.5239C57.9422 70.5239 55.7331 68.5584 55.7331 66.1423C55.7331 64.8717 54.7307 63.8413 53.4946 63.8413C52.2585 63.8413 51.2561 64.8717 51.2561 66.1423C51.2561 70.3589 54.3125 73.9043 58.4192 74.8666V75.8606C58.4192 77.1312 59.4216 78.1616 60.6577 78.1616C61.8938 78.1616 62.8962 77.1312 62.8962 75.8606V74.8666C67.0029 73.9043 70.0593 70.3589 70.0593 66.1423C70.0593 61.1887 65.8418 57.1587 60.6577 57.1587C57.9422 57.1587 55.7331 55.1931 55.7331 52.7773C55.7331 50.3612 57.9422 48.3957 60.6577 48.3957Z" fill="#3550AB"/>
<circle cx="60.5" cy="60.5" r="58.5" stroke="#B4FEFA" stroke-width="4"/>
</svg>
