<svg width="192" height="56" viewBox="0 0 192 56" fill="none" xmlns="http://www.w3.org/2000/svg">
<path d="M36.5146 25.5814C37.1009 25.5814 37.5761 25.1062 37.5761 24.52C37.5761 23.9338 37.1009 23.4585 36.5146 23.4585C35.9284 23.4585 35.4532 23.9338 35.4532 24.52C35.4532 25.1062 35.9284 25.5814 36.5146 25.5814Z" fill="#34D6C3"/>
<path d="M28.9786 21.9727H22.1853C21.7607 21.9727 21.5484 21.6543 21.5484 21.3358C21.5484 20.9112 21.8668 20.699 22.1853 20.699H28.9786C29.4031 20.699 29.6154 21.0174 29.6154 21.3358C29.6154 21.6543 29.297 21.9727 28.9786 21.9727Z" fill="#34D6C3"/>
<path d="M25.581 16.028C23.5642 16.028 21.8659 14.3297 21.8659 12.3129C21.8659 10.2962 23.5642 8.59787 25.581 8.59787C27.5977 8.59787 29.2961 10.2962 29.2961 12.3129C29.2961 14.3297 27.5977 16.028 25.581 16.028ZM25.581 9.87161C24.3072 9.87161 23.1396 10.9331 23.1396 12.3129C23.1396 13.5867 24.2011 14.7543 25.581 14.7543C26.9609 14.7543 28.0223 13.6928 28.0223 12.3129C27.9162 10.9331 26.8547 9.87161 25.581 9.87161Z" fill="#34D6C3"/>
<path d="M35.8773 42.5643H31.6315C30.7823 42.5643 30.1455 41.9274 30.1455 41.0783V39.5923H23.3522V41.0783C23.3522 41.9274 22.7153 42.5643 21.8662 42.5643H17.6203C16.7712 42.5643 16.1343 41.9274 16.1343 41.0783V38.2124C13.1623 36.514 11.1455 33.542 10.8271 30.1453C9.87176 29.7208 7.53656 28.5532 6.58126 27.0671C6.47511 26.8548 6.47511 26.6426 6.58126 26.4303C6.6874 26.218 6.89969 26.1118 7.11198 26.1118L10.9332 25.8995C11.6762 20.9107 16.0282 17.0895 21.2293 17.0895H32.3745L38.1064 13.5867C38.3186 13.4806 38.5309 13.4806 38.8494 13.5867C39.0617 13.6928 39.1678 13.9051 39.1678 14.2236L39.0617 19.3185C40.6538 20.5923 41.9276 22.2906 42.5645 24.3074H44.6874C44.8996 24.3074 45.3242 24.3074 45.7488 24.6258C46.0672 24.9442 46.2795 25.475 46.2795 26.1118V31.4191C46.2795 31.8437 46.1734 32.1621 45.8549 32.3744C45.4304 32.799 44.7935 32.799 44.5812 32.6928H42.4583C41.6091 35.1342 39.8047 37.1509 37.5756 38.3185V41.0783C37.3633 41.9274 36.7265 42.5643 35.8773 42.5643ZM22.6092 38.2124H30.7823C31.2069 38.2124 31.4192 38.5308 31.4192 38.8492V41.0783C31.4192 41.1844 31.5254 41.1844 31.5254 41.1844H35.7712C35.8773 41.1844 35.8773 41.0783 35.8773 41.0783V37.8939C35.8773 37.6816 35.9835 37.3632 36.3019 37.2571C38.5309 36.1956 40.3354 34.1789 41.0784 31.7375C41.1846 31.4191 41.3969 31.3129 41.7153 31.3129H44.3689C44.3689 31.3129 44.3689 31.3129 44.4751 31.3129C44.5812 31.3129 44.6874 31.3129 44.6874 31.3129V26.1118C44.6874 25.7934 44.5812 25.6872 44.5812 25.6872H44.4751C44.4751 25.6872 44.4751 25.6872 44.3689 25.6872H41.7153C41.3969 25.6872 41.1846 25.475 41.0784 25.1565C40.5477 23.1398 39.3801 21.4414 37.6818 20.2738C37.4695 20.1677 37.3633 19.9554 37.3633 19.7431L37.4695 15.4973L32.693 18.4694C32.5868 18.5755 32.4807 18.5755 32.3745 18.5755H21.1231C16.4528 18.5755 12.6315 22.0783 12.1008 26.7487C12.1008 27.0671 11.7824 27.3856 11.4639 27.3856L8.59801 27.4917C9.65946 28.3409 11.0394 28.9777 11.6762 29.19C11.8885 29.2962 12.1008 29.5085 12.1008 29.8269C12.3131 33.0113 14.2237 35.8772 17.0896 37.3632C17.3019 37.4694 17.4081 37.6816 17.4081 38.0001V41.2906C17.4081 41.3967 17.5142 41.3967 17.5142 41.3967H21.76C21.8662 41.3967 21.8662 41.2906 21.8662 41.2906V39.0615C21.9723 38.5308 22.2907 38.2124 22.6092 38.2124Z" fill="#34D6C3"/>
<path d="M27.7039 55.4077C12.419 55.4077 0 42.9888 0 27.7039C0 12.419 12.419 0 27.7039 0C42.9888 0 55.4077 12.419 55.4077 27.7039C55.4077 42.9888 42.9888 55.4077 27.7039 55.4077ZM27.7039 2.44134C13.6927 2.44134 2.33519 13.7989 2.33519 27.7039C2.33519 41.6089 13.6927 53.0726 27.7039 53.0726C41.715 53.0726 52.9664 41.715 52.9664 27.81C52.9664 13.905 41.6089 2.44134 27.7039 2.44134Z" fill="#34D6C3"/>
<path d="M66.3885 14.3239C66.3885 13.5809 66.6008 12.944 67.1316 12.4133C67.6623 11.8826 68.2992 11.6703 69.0422 11.6703C69.7852 11.6703 70.4221 11.8826 70.9528 12.4133C71.4835 12.944 71.6958 13.5809 71.6958 14.3239C71.6958 15.0669 71.4835 15.7038 70.9528 16.2345C70.4221 16.7653 69.7852 16.9775 69.0422 16.9775C68.2992 16.9775 67.6623 16.7653 67.1316 16.2345C66.6008 15.7038 66.3885 15.0669 66.3885 14.3239ZM71.1651 21.7541V39.6926H67.0254V21.7541H71.1651Z" fill="#3E69B1"/>
<path d="M76.5779 21.7547H80.7176V23.453C82.2036 21.967 83.7958 21.3301 85.6003 21.3301C87.7232 21.3301 89.3154 21.967 90.483 23.3469C91.4383 24.5144 91.969 26.3189 91.969 28.7603V39.6932H87.8293V29.7156C87.8293 27.9111 87.617 26.7435 87.0863 26.1066C86.5556 25.4698 85.7064 25.0452 84.4327 25.0452C83.0528 25.0452 82.0975 25.4697 81.4606 26.4251C80.9299 27.2742 80.6115 28.8664 80.6115 31.0954V39.6932H76.5779V21.7547Z" fill="#3E69B1"/>
<path d="M97.9134 21.7547L102.584 31.8385L107.148 21.7547H111.818L102.478 40.8608L93.243 21.7547H97.9134Z" fill="#3E69B1"/>
<path d="M118.081 21.7547V32.0507C118.081 35.0228 119.248 36.5088 121.584 36.5088C123.919 36.5088 125.086 35.0228 125.086 32.0507V21.7547H129.226V32.1569C129.226 33.6429 129.014 34.8105 128.695 35.872C128.377 36.8273 127.74 37.6764 126.891 38.4194C125.511 39.587 123.707 40.2239 121.584 40.2239C119.461 40.2239 117.656 39.587 116.276 38.4194C115.427 37.6764 114.79 36.8273 114.472 35.872C114.153 35.0228 113.941 33.7491 113.941 32.1569V21.7547H118.081Z" fill="#3E69B1"/>
<path d="M150.137 31.7323H137.293C137.399 33.2183 137.93 34.3859 138.779 35.2351C139.628 36.0843 140.69 36.5088 142.07 36.5088C143.131 36.5088 143.98 36.2966 144.617 35.7658C145.254 35.2351 145.997 34.3859 146.846 33.0061L150.349 34.9167C149.818 35.872 149.288 36.615 148.651 37.2519C148.014 37.8887 147.377 38.4195 146.74 38.844C146.103 39.2686 145.36 39.5871 144.511 39.7993C143.662 40.0116 142.813 40.1178 141.964 40.1178C139.31 40.1178 137.187 39.2686 135.489 37.5703C133.897 35.872 133.047 33.5368 133.047 30.6709C133.047 27.8049 133.791 25.5759 135.383 23.7714C136.975 22.0731 139.098 21.224 141.645 21.224C144.299 21.224 146.316 22.0731 147.908 23.7714C149.394 25.4698 150.137 27.6988 150.137 30.6709V31.7323ZM145.891 28.3357C145.36 26.1066 143.874 25.0452 141.751 25.0452C141.221 25.0452 140.796 25.1513 140.371 25.2575C139.947 25.3636 139.522 25.682 139.204 25.8943C138.885 26.2128 138.567 26.5312 138.249 26.9558C138.036 27.3804 137.824 27.8049 137.612 28.3357H145.891Z" fill="#3E69B1"/>
<path d="M157.886 8.59224V39.6928H153.746V8.59224H157.886Z" fill="#3E69B1"/>
<path d="M168.395 25.5762V39.5874H164.255V25.5762H162.45V21.755H164.255V15.174H168.395V21.755H171.579V25.5762H168.395Z" fill="#3E69B1"/>
<path d="M172.64 30.5647C172.64 28.0172 173.595 25.7882 175.4 23.9837C177.204 22.1793 179.539 21.224 182.193 21.224C184.846 21.224 187.182 22.1793 188.986 23.9837C190.791 25.7882 191.746 28.0172 191.746 30.6709C191.746 33.3245 190.791 35.6597 188.986 37.4642C187.076 39.2686 184.846 40.1178 182.087 40.1178C179.433 40.1178 177.098 39.1625 175.293 37.358C173.595 35.6597 172.64 33.3245 172.64 30.5647ZM176.886 30.6709C176.886 32.4753 177.416 33.8552 178.372 34.9167C179.327 35.9781 180.601 36.5088 182.299 36.5088C183.891 36.5088 185.165 35.9781 186.226 34.9167C187.182 33.8552 187.712 32.4753 187.712 30.777C187.712 29.0787 187.182 27.5927 186.226 26.6374C185.271 25.5759 183.997 25.0452 182.299 25.0452C180.707 25.0452 179.433 25.5759 178.478 26.6374C177.416 27.5927 176.886 28.9725 176.886 30.6709Z" fill="#3E69B1"/>
</svg>
