<svg width="153" height="137" viewBox="0 0 153 137" fill="none" xmlns="http://www.w3.org/2000/svg">
<g filter="url(#filter0_d)">
<ellipse rx="45.2306" ry="44.0466" transform="matrix(-0.962983 -0.269562 -0.269562 0.962983 77.4298 60.6087)" fill="#ADFCF7"/>
</g>
<path d="M69.2578 40.1719L77.9766 45.5859C73.7109 51.8203 71.5078 58.3125 71.3672 65.0625V75.75H56.3906V66.0469C56.4375 61.5469 57.6562 56.8594 60.0469 51.9844C62.4844 47.0625 65.5547 43.125 69.2578 40.1719ZM92.8828 40.1719L101.602 45.5859C97.3359 51.8203 95.1328 58.3125 94.9922 65.0625V75.75H80.0156V66.0469C80.0625 61.5469 81.2812 56.8594 83.6719 51.9844C86.1094 47.0625 89.1797 43.125 92.8828 40.1719Z" fill="#4051A7"/>
<defs>
<filter id="filter0_d" x="16" y="0" width="124.859" height="123.217" filterUnits="userSpaceOnUse" color-interpolation-filters="sRGB">
<feFlood flood-opacity="0" result="BackgroundImageFix"/>
<feColorMatrix in="SourceAlpha" type="matrix" values="0 0 0 0 0 0 0 0 0 0 0 0 0 0 0 0 0 0 127 0"/>
<feOffset dx="1" dy="1"/>
<feGaussianBlur stdDeviation="3.5"/>
<feColorMatrix type="matrix" values="0 0 0 0 0 0 0 0 0 0 0 0 0 0 0 0 0 0 0.25 0"/>
<feBlend mode="normal" in2="BackgroundImageFix" result="effect1_dropShadow"/>
<feBlend mode="normal" in="SourceGraphic" in2="effect1_dropShadow" result="shape"/>
</filter>
</defs>
</svg>
