<svg width="18" height="18" viewBox="0 0 18 18" fill="none" xmlns="http://www.w3.org/2000/svg">
<path d="M16.125 9.74997C17.1585 9.74997 18 8.90847 18 7.87498L18 1.87497C18 0.841482 17.1585 -1.80462e-05 16.125 -1.79559e-05L13.875 -1.77592e-05C13.4527 -1.77223e-05 13.0643 0.142471 12.75 0.379494L12.75 9.74997L16.125 9.74997Z" fill="#7ECAD2"/>
<path d="M1.05425e-05 6.93748C1.0582e-05 7.38822 0.178499 7.80823 0.48826 8.11799C0.137999 8.50123 -0.0404899 9.01501 0.0082715 9.54973C0.096022 10.503 0.954785 11.25 1.96426 11.25L6.59701 11.25C6.36751 11.9468 6.00002 13.224 6.00002 14.25C6.00002 15.8767 7.38226 17.25 8.25002 17.25C9.02926 17.25 9.58579 16.8112 9.60976 16.7932C9.69825 16.722 9.75 16.614 9.75 16.5L9.75 13.9567L11.91 9.27748L12 9.23174L12 1.19323C11.3895 0.905232 10.617 0.749981 10.125 0.749981L3.24075 0.749982C2.424 0.749982 1.70924 1.30049 1.54126 2.06022C1.45502 2.45098 1.50526 2.84473 1.677 3.18673C1.12276 3.46573 0.749999 4.03649 0.749999 4.68748C0.749999 4.95298 0.810749 5.20723 0.926237 5.43747C0.371999 5.71647 1.04857e-05 6.28723 1.05425e-05 6.93748Z" fill="#7ECAD2"/>
</svg>
