<svg width="152" height="183" viewBox="0 0 152 183" fill="none" xmlns="http://www.w3.org/2000/svg">
<g opacity="0.07" clip-path="url(#clip0)" filter="url(#filter0_d)">
<path fill-rule="evenodd" clip-rule="evenodd" d="M160.23 95.2605C160.511 89.3116 158.955 83.7446 156.389 78.4355C155.006 75.5698 153.338 72.8498 151.413 70.3162C151.274 70.1605 151.183 69.9682 151.15 69.7621C151.118 69.5561 151.145 69.3451 151.229 69.1542C153.796 61.4607 152.449 54.4832 147.239 48.3026C146.99 48.0087 146.702 47.7374 146.442 47.454L145.475 47.0773C144.96 47.0526 144.447 47.1502 143.978 47.3621C143.508 47.574 143.095 47.8941 142.773 48.2963C138.62 52.736 134.453 57.0722 130.285 61.453C130.129 61.6194 129.962 61.7742 129.798 61.9447C125.881 56.4498 119.207 54.7046 112.849 56.8536C93.1783 63.4095 73.4908 69.8148 53.8064 76.2896C50.8484 77.2425 48.2892 79.148 46.5281 81.7086C44.767 84.2691 43.9032 87.3407 44.0716 90.4438C44.0838 90.6455 44.087 90.8512 44.093 91.0883L43.3817 90.9702C37.2961 89.8933 31.2068 88.8453 25.1274 87.733C23.8411 87.4968 22.7785 87.6582 21.9228 88.6878L21.5923 89.536C21.5614 90.7811 21.4362 92.0349 21.5011 93.287C21.8839 100.252 25.0201 105.632 30.7276 109.583C30.9081 109.688 31.0551 109.842 31.1518 110.027C31.2485 110.213 31.2909 110.421 31.2742 110.629C31.2615 117.327 32.337 123.797 35.2137 129.901C36.3395 132.275 37.7649 134.495 39.4549 136.507L41.0952 137.214L40.5758 137.012C41.1092 137.024 41.6369 136.9 42.1096 136.653C42.5822 136.405 42.9843 136.042 43.2783 135.596C46.6448 131.486 50.0416 127.395 53.4319 123.302C53.8027 122.856 54.1775 122.419 54.5652 121.949L55.0153 122.465C56.3712 124.217 58.1311 125.615 60.1447 126.539C63.4148 128.076 67.1552 128.279 70.5723 127.104L91.5331 120.211C104.541 115.93 117.549 111.642 130.558 107.347C135.677 105.639 138.77 101.997 139.943 96.752C140.126 95.6719 140.25 94.5824 140.314 93.4886L140.493 93.5132C145.786 94.8186 151.071 96.1213 156.363 97.487C157.59 97.7984 158.693 97.8424 159.688 96.9425L160.278 95.5064C160.251 95.4269 160.235 95.3442 160.23 95.2605ZM54.6636 78.676C58.483 77.413 62.3059 76.1539 66.1324 74.8987C66.314 74.8408 66.4996 74.792 66.7741 74.7096L52.231 108.604L50.9318 104.689L47.2026 93.4666C46.6915 92.007 46.48 90.4593 46.5807 88.9161C46.6814 87.3729 47.0923 85.8659 47.7888 84.4852C48.4853 83.1044 49.4532 81.8783 50.6344 80.8802C51.8156 79.882 53.186 79.1324 54.6636 78.676ZM52.2405 120.899C48.6433 125.154 45.1096 129.479 41.5665 133.771C41.407 133.966 41.2279 134.154 40.9748 134.434C40.2646 133.399 39.5383 132.465 38.9227 131.46C36.2655 127.05 34.6287 122.101 34.132 116.976C33.8449 114.448 33.8406 111.895 33.7668 109.344C33.7874 109.108 33.7368 108.872 33.6217 108.665C33.5066 108.458 33.3322 108.29 33.121 108.184C29.3497 106.005 26.4689 102.565 24.9867 98.47C24.0907 96.0012 23.7375 93.3683 23.9512 90.7507C23.9664 90.537 24.0012 90.3309 24.0431 90.0292L29.1194 90.9171C34.0777 91.797 39.0335 92.6834 43.9995 93.5435C44.1977 93.5559 44.3865 93.6329 44.5369 93.7626C44.6874 93.8923 44.7912 94.0677 44.8327 94.262C47.451 102.273 50.0508 110.253 52.7551 118.199C52.9551 118.65 53.0101 119.153 52.9123 119.637C52.8144 120.121 52.5687 120.563 52.209 120.902L52.2405 120.899ZM70.4237 123.949C70.3403 124.177 70.2016 124.38 70.02 124.541C69.8384 124.701 69.6197 124.814 69.3836 124.869C66.5507 125.707 63.5043 125.428 60.8709 124.089C58.2375 122.75 56.2172 120.453 55.2256 117.67C54.5001 115.645 53.8622 113.609 53.2127 111.584C53.1309 111.302 53.1444 111.001 53.2509 110.728C58.4329 98.611 63.6303 86.5001 68.8429 74.3951C68.9614 74.1381 69.1705 73.9337 69.4301 73.8212C78.0279 70.9722 86.6318 68.1333 95.2419 65.3043C95.3033 65.2828 95.3661 65.277 95.5715 65.2359L95.3025 65.9262C86.9881 85.2638 78.6847 104.606 70.3923 123.952L70.4237 123.949ZM84.5105 119.867C80.4957 121.21 76.5917 122.483 72.6748 123.789C72.5977 123.812 72.5166 123.826 72.3609 123.856C72.4404 123.652 72.4993 123.501 72.5557 123.356C80.9091 103.892 89.2647 84.4295 97.6224 64.9674C97.7257 64.7245 97.9154 64.5286 98.1548 64.4176C102.092 63.0994 106.037 61.7973 109.992 60.5113C110.124 60.4802 110.257 60.4562 110.391 60.4396L110.107 61.1694C101.795 80.5384 93.4881 99.9092 85.1854 119.282C85.0344 119.561 84.7814 119.772 84.4791 119.87L84.5105 119.867ZM119.595 96.4778C117.703 100.89 115.811 105.305 113.918 109.722C113.856 109.902 113.753 110.065 113.615 110.198C113.478 110.33 113.312 110.428 113.129 110.483C104.617 113.269 96.1079 116.064 87.6032 118.868C87.4648 118.913 87.3314 118.944 87.0686 119.016L87.3249 118.359C95.6261 99.0158 103.923 79.6713 112.215 60.3251C112.303 60.0994 112.441 59.8971 112.621 59.7342C112.8 59.5714 113.014 59.4525 113.247 59.3869C115.563 58.5553 117.914 58.0627 120.374 58.5899C122.333 58.939 124.165 59.7997 125.684 61.0847C127.204 62.3698 128.356 64.0336 129.025 65.9075C129.59 67.3544 130.036 68.8534 130.493 70.3418C130.554 70.6495 130.515 70.9687 130.381 71.2522C126.785 79.6608 123.18 88.0702 119.563 96.4807L119.595 96.4778ZM129.718 105.013L116.679 109.322L115.924 109.55L131.534 73.1708C131.63 73.5264 131.678 73.7343 131.744 73.9342C133.543 79.3964 135.344 84.8595 137.147 90.3233C137.641 91.7765 137.839 93.3137 137.73 94.8445C137.621 96.3753 137.207 97.8689 136.512 99.2373C135.817 100.606 134.855 101.821 133.684 102.812C132.512 103.804 131.154 104.551 129.689 105.009L129.718 105.013ZM153.522 94.2061C149.117 93.1104 144.713 92.0147 140.307 90.9033C140.195 90.8677 140.092 90.8088 140.005 90.7305C139.918 90.6522 139.849 90.5563 139.802 90.4492C137.978 84.947 136.165 79.4439 134.362 73.9398C133.317 70.7911 132.262 67.6688 131.22 64.5135C131.214 64.3921 131.234 64.2708 131.278 64.1576C131.322 64.0443 131.39 63.9416 131.476 63.8561C134.65 60.4935 137.832 57.1396 141.024 53.7944L145.031 49.5775C145.306 49.8817 145.57 50.1362 145.786 50.4173C150.094 55.8826 151.187 61.9581 148.85 68.5372C148.599 69.06 148.511 69.6458 148.597 70.2192C148.682 70.7925 148.938 71.3271 149.33 71.7538C153.188 76.6248 155.893 82.3058 157.243 88.3709C157.718 90.6403 157.887 92.9629 157.747 95.2772L153.522 94.2061Z" fill="#3F4EA9"/>
</g>
<defs>
<filter id="filter0_d" x="-4" y="0" width="190.738" height="190.738" filterUnits="userSpaceOnUse" color-interpolation-filters="sRGB">
<feFlood flood-opacity="0" result="BackgroundImageFix"/>
<feColorMatrix in="SourceAlpha" type="matrix" values="0 0 0 0 0 0 0 0 0 0 0 0 0 0 0 0 0 0 127 0"/>
<feOffset dy="4"/>
<feGaussianBlur stdDeviation="2"/>
<feColorMatrix type="matrix" values="0 0 0 0 0 0 0 0 0 0 0 0 0 0 0 0 0 0 0.25 0"/>
<feBlend mode="normal" in2="BackgroundImageFix" result="effect1_dropShadow"/>
<feBlend mode="normal" in="SourceGraphic" in2="effect1_dropShadow" result="shape"/>
</filter>
<clipPath id="clip0">
<rect width="141.124" height="141.124" fill="white" transform="translate(51.248) rotate(21.2933)"/>
</clipPath>
</defs>
</svg>
